<svg width="535" height="70" viewBox="0 0 535 70" fill="none" xmlns="http://www.w3.org/2000/svg">
<path fill-rule="evenodd" clip-rule="evenodd" d="M14.837 14.2031H33.6094C34.5469 14.2031 35.4219 14.375 36.2344 14.7188C37.0469 15.0625 37.75 15.5469 38.3438 16.1719C38.9688 16.7656 39.4531 17.4688 39.7969 18.2812C40.1406 19.0938 40.3125 19.9688 40.3125 20.9062C40.3125 21.8438 40.1406 22.7344 39.7969 23.5781C39.4531 24.3906 38.9688 25.1094 38.3438 25.7344C37.75 26.3281 37.0469 26.7969 36.2344 27.1406C35.4219 27.4844 34.5469 27.6562 33.6094 27.6562H13.4531V17.2188L0 1.22044L0 67.9688H33.6094C36.3906 67.9688 39 67.4375 41.4375 66.375C43.875 65.3125 46 63.875 47.8125 62.0625C49.6562 60.2188 51.1094 58.0781 52.1719 55.6406C52.71 54.406 53.1119 53.1273 53.3775 51.8045V67.9688H66.8306V45.4429C67.6202 47.8282 68.6314 50.0868 69.8644 52.2188C71.3644 54.7812 73.1769 57.125 75.3019 59.25C77.4269 61.3438 79.7706 63.1562 82.3331 64.6875C84.8956 66.1875 87.6456 67.3438 90.5831 68.1562C93.5519 69 96.63 69.4219 99.8175 69.4219C103.974 69.4219 107.974 68.7188 111.817 67.3125C115.661 65.875 119.146 63.8281 122.271 61.1719V50.6071C122.549 51.1521 122.842 51.6893 123.148 52.2188C124.648 54.7812 126.461 57.125 128.586 59.25C130.711 61.3438 133.054 63.1562 135.617 64.6875C138.179 66.1875 140.929 67.3438 143.867 68.1562C146.836 69 149.914 69.4219 153.101 69.4219C157.258 69.4219 161.258 68.7188 165.101 67.3125C168.863 65.9057 172.28 63.9152 175.354 61.3412V67.9688H220.294H221.432H233.747V54.5156L248.794 54.4219L254.653 67.9688H268.95L261.497 50.3906C263.434 49.1719 265.184 47.7344 266.747 46.0781C268.309 44.4219 269.622 42.6094 270.684 40.6406C271.337 39.4657 271.895 38.2519 272.359 36.9991V67.9688H315.892H319.421H327.107L319.421 58.8295L315.892 54.6331L315.794 54.5156H285.812V0.75H272.359V18.3035C271.817 16.8428 271.149 15.4447 270.356 14.1094C269.2 12.1094 267.794 10.2969 266.138 8.67188C264.513 7.01562 262.7 5.60938 260.7 4.45312C258.731 3.26562 256.606 2.35938 254.325 1.73438C252.044 1.07812 249.669 0.75 247.2 0.75H225.047L236.36 14.2031H247.2C249.044 14.2031 250.778 14.5625 252.403 15.2812C254.028 15.9688 255.45 16.9219 256.669 18.1406C257.888 19.3594 258.841 20.7969 259.528 22.4531C260.247 24.0781 260.606 25.8125 260.606 27.6562C260.606 29.5 260.247 31.25 259.528 32.9062C258.841 34.5312 257.888 35.9531 256.669 37.1719C255.45 38.3906 254.028 39.3594 252.403 40.0781C250.778 40.7656 249.044 41.1094 247.2 41.1094H233.747V15.7573L221.127 0.75H220.294H175.354V8.08073C172.28 5.50731 168.863 3.53248 165.101 2.15625C161.258 0.71875 157.258 0 153.101 0C149.914 0 146.836 0.421875 143.867 1.26562C140.929 2.07812 138.179 3.23438 135.617 4.73438C133.054 6.23438 130.711 8.04688 128.586 10.1719C126.461 12.2656 124.648 14.6094 123.148 17.2031C121.648 19.7656 120.476 22.5156 119.632 25.4531C118.82 28.3906 118.414 31.4531 118.414 34.6406H109.286V53.7656C107.849 54.4844 106.333 55.0469 104.739 55.4531C103.146 55.8594 101.505 56.0625 99.8175 56.0625C96.88 56.0625 94.1144 55.5 91.5206 54.375C88.9581 53.25 86.7081 51.7188 84.7706 49.7812C82.8331 47.8438 81.3019 45.5781 80.1769 42.9844C79.0519 40.3906 78.4894 37.6094 78.4894 34.6406C78.4894 31.7031 79.0519 28.9531 80.1769 26.3906C81.3019 23.7969 82.8331 21.5469 84.7706 19.6406C86.7081 17.7031 88.9581 16.1719 91.5206 15.0469C94.1144 13.9219 96.88 13.3594 99.8175 13.3594C102.755 13.3594 105.552 13.9531 108.208 15.1406C110.864 16.2969 113.208 17.9062 115.239 19.9688L122.271 8.25C119.146 5.59375 115.661 3.5625 111.817 2.15625C107.974 0.71875 103.974 0 99.8175 0C96.63 0 93.5519 0.421875 90.5831 1.26562C87.6456 2.07812 84.8956 3.23438 82.3331 4.73438C79.7706 6.23438 77.4269 8.04688 75.3019 10.1719C73.1769 12.2656 71.3644 14.6094 69.8644 17.2031C68.6314 19.3094 67.6202 21.5423 66.8306 23.9019V0.75H53.3775V16.9143C53.1119 15.5915 52.71 14.3127 52.1719 13.0781C51.1094 10.6406 49.6562 8.51562 47.8125 6.70312C46 4.85938 43.875 3.40625 41.4375 2.34375C39 1.28125 36.3906 0.75 33.6094 0.75H3.52412L14.837 14.2031ZM438.996 14.2031H455.119V67.9688H468.525V14.2031H481.986C481.222 16.314 480.84 18.5483 480.84 20.9062C480.84 23.6875 481.371 26.3125 482.434 28.7812C483.496 31.2188 484.934 33.3594 486.746 35.2031C488.59 37.0156 490.731 38.4531 493.168 39.5156C495.606 40.5781 498.215 41.1094 500.996 41.1094H514.449C515.387 41.1094 516.262 41.2812 517.074 41.625C517.887 41.9688 518.59 42.4531 519.184 43.0781C519.809 43.6719 520.293 44.375 520.637 45.1875C520.981 46 521.152 46.875 521.152 47.8125C521.152 48.75 520.981 49.625 520.637 50.4375C520.293 51.25 519.809 51.9688 519.184 52.5938C518.59 53.1875 517.887 53.6562 517.074 54C516.262 54.3438 515.387 54.5156 514.449 54.5156H484.59V67.9688H514.449C517.231 67.9688 519.84 67.4375 522.277 66.375C524.746 65.3125 526.887 63.875 528.699 62.0625C530.543 60.2188 531.981 58.0781 533.012 55.6406C534.074 53.2031 534.606 50.5938 534.606 47.8125C534.606 45.0312 534.074 42.4219 533.012 39.9844C531.981 37.5156 530.543 35.375 528.699 33.5625C526.887 31.7188 524.746 30.2812 522.277 29.25C519.84 28.1875 517.231 27.6562 514.449 27.6562H500.996C500.059 27.6562 499.184 27.4844 498.371 27.1406C497.559 26.7969 496.84 26.3281 496.215 25.7344C495.621 25.1094 495.152 24.3906 494.809 23.5781C494.465 22.7344 494.293 21.8438 494.293 20.9062C494.293 19.9688 494.465 19.0938 494.809 18.2812C495.152 17.4688 495.621 16.7656 496.215 16.1719C496.84 15.5469 497.559 15.0625 498.371 14.7188C499.184 14.375 500.059 14.2031 500.996 14.2031H531.84V0.75H500.996C498.215 0.75 495.606 1.28125 493.168 2.34375C491.54 3.05342 490.044 3.93736 488.681 4.99557V0.75H438.351H434.916H427.683L438.996 14.2031ZM424.897 2.09854V27.6562H398.038V0.75H384.585V8.08074C381.512 5.50731 378.094 3.53248 374.332 2.15625C370.489 0.71875 366.489 0 362.332 0C359.145 0 356.067 0.421875 353.098 1.26562C350.161 2.07812 347.411 3.23438 344.848 4.73438C342.286 6.23438 339.942 8.04688 337.817 10.1719C335.692 12.2656 333.879 14.6094 332.379 17.2031C331.146 19.3094 330.135 21.5423 329.346 23.902V0.75H315.892V49.9718L329.346 65.9702V45.4429C330.135 47.8282 331.146 50.0868 332.379 52.2188C333.879 54.7812 335.692 57.125 337.817 59.25C339.942 61.3438 342.286 63.1562 344.848 64.6875C347.411 66.1875 350.161 67.3438 353.098 68.1562C356.067 69 359.145 69.4219 362.332 69.4219C366.489 69.4219 370.489 68.7188 374.332 67.3125C378.094 65.9057 381.512 63.9152 384.585 61.3412V67.9688H398.038V41.1094H424.897V67.9688H438.351V18.0968L424.897 2.09854ZM175.354 8.5844V34.6406H162.57V53.7656C161.133 54.4844 159.617 55.0469 158.023 55.4531C156.429 55.8594 154.789 56.0625 153.101 56.0625C150.164 56.0625 147.398 55.5 144.804 54.375C142.242 53.25 139.992 51.7188 138.054 49.7812C136.117 47.8438 134.586 45.5781 133.461 42.9844C132.336 40.3906 131.773 37.6094 131.773 34.6406C131.773 31.7031 132.336 28.9531 133.461 26.3906C134.586 23.7969 136.117 21.5469 138.054 19.6406C139.992 17.7031 142.242 16.1719 144.804 15.0469C147.398 13.9219 150.164 13.3594 153.101 13.3594C156.039 13.3594 158.836 13.9531 161.492 15.1406C164.148 16.2969 166.492 17.9062 168.523 19.9688L175.354 8.5844ZM220.294 14.2031V54.5156H188.807V41.1094H210.885V27.6562H188.807V14.2031H220.294ZM377.754 19.9688L384.585 8.58437V34.6406H371.801V53.7656C370.364 54.4844 368.848 55.0469 367.254 55.4531C365.661 55.8594 364.02 56.0625 362.332 56.0625C359.395 56.0625 356.629 55.5 354.036 54.375C351.473 53.25 349.223 51.7188 347.286 49.7812C345.348 47.8438 343.817 45.5781 342.692 42.9844C341.567 40.3906 341.004 37.6094 341.004 34.6406C341.004 31.7031 341.567 28.9531 342.692 26.3906C343.817 23.7969 345.348 21.5469 347.286 19.6406C349.223 17.7031 351.473 16.1719 354.036 15.0469C356.629 13.9219 359.395 13.3594 362.332 13.3594C365.27 13.3594 368.067 13.9531 370.723 15.1406C373.379 16.2969 375.723 17.9062 377.754 19.9688ZM53.25 24.75C53.2955 24.5762 53.338 24.403 53.3775 24.2303V44.4884C53.338 44.3158 53.2955 44.1425 53.25 43.9688C52.9375 42.625 52.4688 41.3438 51.8438 40.125C51.2188 38.9062 50.4688 37.7969 49.5938 36.7969C48.7188 35.7656 47.7344 34.9531 46.6406 34.3594C47.7031 33.7031 48.6719 32.875 49.5469 31.875C50.4219 30.875 51.1719 29.7656 51.7969 28.5469C52.4219 27.3281 52.9062 26.0625 53.25 24.75ZM13.4531 54.5156H33.6094C34.5469 54.5156 35.4219 54.3438 36.2344 54C37.0469 53.6562 37.75 53.1875 38.3438 52.5938C38.9688 51.9688 39.4531 51.25 39.7969 50.4375C40.1406 49.625 40.3125 48.75 40.3125 47.8125C40.3125 46.875 40.1406 46 39.7969 45.1875C39.4531 44.375 38.9688 43.6719 38.3438 43.0781C37.75 42.4531 37.0469 41.9688 36.2344 41.625C35.4219 41.2812 34.5469 41.1094 33.6094 41.1094H13.4531V54.5156Z" fill="#F5F5F4"/>
</svg>
